<mxfile host="app.diagrams.net" modified="2023-06-02T15:26:41.115Z" agent="Mozilla/5.0 (X11; Linux x86_64) AppleWebKit/537.36 (KHTML, like Gecko) Chrome/113.0.0.0 Safari/537.36" version="21.3.7" etag="wc-e4VFl1WTgTE0l0vXH" type="github">
  <diagram name="PÃ¡gina-1" id="oHhv2ndifYpRvHrSW0PC">
    <mxGraphModel>
      <root>
        <mxCell id="0" />
        <mxCell id="1" parent="0" />
      </root>
    </mxGraphModel>
  </diagram>
</mxfile>
